Input #0, mov,mp4,m4a,3gp,3g2,mj2, from '/home/hbattu/projects/huberman-gpt/huberman-audio/mp3/tmpc4p7dwej.mp4':
  Metadata:
    major_brand     : dash
    minor_version   : 0
    compatible_brands: iso6mp41
    creation_time   : 2022-07-10T21:58:18.000000Z
  Duration: 02:09:00.26, start: 0.000000, bitrate: 129 kb/s
    Stream #0:0(eng): Audio: aac (LC) (mp4a / 0x6134706D), 44100 Hz, stereo, fltp, 0 kb/s (default)
    Metadata:
      creation_time   : 2022-07-10T21:58:18.000000Z
      handler_name    : ISO Media file produced by Google Inc.
Stream mapping:
  Stream #0:0 -> #0:0 (aac (native) -> mp3 (libmp3lame))
Press [q] to stop, [?] for help
[graph_0_in_0_0 @ 0x55f610eab540] tb:1/44100 samplefmt:fltp samplerate:44100 chlayout:0x3
Output #0, mp3, to '../huberman-audio/mp3/T65RDBiB5Hs.mp3':
  Metadata:
    major_brand     : dash
    minor_version   : 0
    compatible_brands: iso6mp41
    TSSE            : Lavf58.29.100
    Stream #0:0(eng): Audio: mp3 (libmp3lame), 44100 Hz, stereo, fltp, delay 1105 (default)
    Metadata:
      creation_time   : 2022-07-10T21:58:18.000000Z
      handler_name    : ISO Media file produced by Google Inc.
      encoder         : Lavc58.54.100 libmp3lame
No more output streams to write to, finishing.
size=  120942kB time=02:09:00.26 bitrate= 128.0kbits/s speed=96.3x    
[AVIOContext @ 0x55f610d9a900] Statistics: 0 seeks, 161 writeouts
video:0kB audio:120942kB subtitle:0kB other streams:0kB global headers:0kB muxing overhead: 0.000279%
Input file #0 (/home/hbattu/projects/huberman-gpt/huberman-audio/mp3/tmpc4p7dwej.mp4):
  Input stream #0:0 (audio): 333345 packets read (123844092 bytes); 333345 frames decoded (341345280 samples); 
  Total: 333345 packets (123844092 bytes) demuxed
Output file #0 (../huberman-audio/mp3/T65RDBiB5Hs.mp3):
  Output stream #0:0 (audio): 296307 frames encoded (341345280 samples); 296308 packets muxed (123844649 bytes); 
  Total: 296308 packets (123844649 bytes) muxed
[AVIOContext @ 0x55f610dc6900] Statistics: 2 seeks, 474 writeouts
[AVIOContext @ 0x55f610da3880] Statistics: 125268152 bytes read, 0 seeks
